HIERARCHY
ROOT HIP
{
	OFFSET 0.0 0.0 0.0
	CHANNELS 6 Xposition Yposition Zposition Zrotation Xrotation Yrotation
	JOINT WAIST
	{
		OFFSET 0.0 0.040713925 0.0
		CHANNELS 3 Zrotation Xrotation Yrotation
		JOINT CHEST
		{
			OFFSET 0.0 0.20356962 0.0
			CHANNELS 3 Zrotation Xrotation Yrotation
			JOINT UPPER_CHEST
			{
				OFFSET 0.0 0.1628557 0.0
				CHANNELS 3 Zrotation Xrotation Yrotation
				JOINT NECK
				{
					OFFSET 0.0 0.1628557 0.0
					CHANNELS 3 Zrotation Xrotation Yrotation
					JOINT HEAD
					{
						OFFSET 0.0 0.0 0.0
						CHANNELS 3 Zrotation Xrotation Yrotation
						End Site
						{
							OFFSET 0.0 0.0 0.0
						}
					}
					JOINT HEAD_TRACKER
					{
						OFFSET 0.0 -0.0 0.0
						CHANNELS 3 Zrotation Xrotation Yrotation
						End Site
						{
							OFFSET 0.0 0.0 0.0
						}
					}
					JOINT LEFT_UPPER_SHOULDER
					{
						OFFSET 0.0 -0.0 0.0
						CHANNELS 3 Zrotation Xrotation Yrotation
						JOINT LEFT_SHOULDER
						{
							OFFSET 0.0 -0.0 0.0
							CHANNELS 3 Zrotation Xrotation Yrotation
							JOINT LEFT_UPPER_ARM
							{
								OFFSET 0.0 -0.19241881 0.0
								CHANNELS 3 Zrotation Xrotation Yrotation
								JOINT LEFT_LOWER_ARM
								{
									OFFSET 0.0 -0.2646405 0.0
									CHANNELS 3 Zrotation Xrotation Yrotation
									JOINT LEFT_HAND
									{
										OFFSET 0.0 -0.2646405 0.0
										CHANNELS 3 Zrotation Xrotation Yrotation
										JOINT LEFT_HAND_TRACKER
										{
											OFFSET 0.0 -0.13462912 0.0
											CHANNELS 3 Zrotation Xrotation Yrotation
											End Site
											{
												OFFSET 0.0 0.0 0.0
											}
										}
										JOINT LEFT_THUMB_METACARPAL
										{
											OFFSET 0.0 -0.13462912 0.0
											CHANNELS 3 Zrotation Xrotation Yrotation
											JOINT LEFT_THUMB_PROXIMAL
											{
												OFFSET 0.0 -0.007826238 0.0
												CHANNELS 3 Zrotation Xrotation Yrotation
												JOINT LEFT_THUMB_DISTAL
												{
													OFFSET 0.0 -0.007826238 0.0
													CHANNELS 3 Zrotation Xrotation Yrotation
													End Site
													{
														OFFSET 0.0 0.0 0.0
													}
												}
											}
										}
										JOINT LEFT_INDEX_PROXIMAL
										{
											OFFSET 0.0 -0.13462912 0.0
											CHANNELS 3 Zrotation Xrotation Yrotation
											JOINT LEFT_INDEX_INTERMEDIATE
											{
												OFFSET 0.0 -0.00875 0.0
												CHANNELS 3 Zrotation Xrotation Yrotation
												JOINT LEFT_INDEX_DISTAL
												{
													OFFSET 0.0 -0.00875 0.0
													CHANNELS 3 Zrotation Xrotation Yrotation
													End Site
													{
														OFFSET 0.0 0.0 0.0
													}
												}
											}
										}
										JOINT LEFT_MIDDLE_PROXIMAL
										{
											OFFSET 0.0 -0.13462912 0.0
											CHANNELS 3 Zrotation Xrotation Yrotation
											JOINT LEFT_MIDDLE_INTERMEDIATE
											{
												OFFSET 0.0 -0.010500001 0.0
												CHANNELS 3 Zrotation Xrotation Yrotation
												JOINT LEFT_MIDDLE_DISTAL
												{
													OFFSET 0.0 -0.010500001 0.0
													CHANNELS 3 Zrotation Xrotation Yrotation
													End Site
													{
														OFFSET 0.0 0.0 0.0
													}
												}
											}
										}
										JOINT LEFT_RING_PROXIMAL
										{
											OFFSET 0.0 -0.13462912 0.0
											CHANNELS 3 Zrotation Xrotation Yrotation
											JOINT LEFT_RING_INTERMEDIATE
											{
												OFFSET 0.0 -0.0098 0.0
												CHANNELS 3 Zrotation Xrotation Yrotation
												JOINT LEFT_RING_DISTAL
												{
													OFFSET 0.0 -0.0098 0.0
													CHANNELS 3 Zrotation Xrotation Yrotation
													End Site
													{
														OFFSET 0.0 0.0 0.0
													}
												}
											}
										}
										JOINT LEFT_LITTLE_PROXIMAL
										{
											OFFSET 0.0 -0.13462912 0.0
											CHANNELS 3 Zrotation Xrotation Yrotation
											JOINT LEFT_LITTLE_INTERMEDIATE
											{
												OFFSET 0.0 -0.007 0.0
												CHANNELS 3 Zrotation Xrotation Yrotation
												JOINT LEFT_LITTLE_DISTAL
												{
													OFFSET 0.0 -0.007 0.0
													CHANNELS 3 Zrotation Xrotation Yrotation
													End Site
													{
														OFFSET 0.0 0.0 0.0
													}
												}
											}
										}
									}
								}
								JOINT LEFT_ELBOW_TRACKER
								{
									OFFSET 0.0 -0.2646405 0.0
									CHANNELS 3 Zrotation Xrotation Yrotation
									End Site
									{
										OFFSET 0.0 0.0 0.0
									}
								}
							}
						}
					}
					JOINT RIGHT_UPPER_SHOULDER
					{
						OFFSET 0.0 -0.0 0.0
						CHANNELS 3 Zrotation Xrotation Yrotation
						JOINT RIGHT_SHOULDER
						{
							OFFSET 0.0 -0.0 0.0
							CHANNELS 3 Zrotation Xrotation Yrotation
							JOINT RIGHT_UPPER_ARM
							{
								OFFSET 0.0 -0.19241881 0.0
								CHANNELS 3 Zrotation Xrotation Yrotation
								JOINT RIGHT_LOWER_ARM
								{
									OFFSET 0.0 -0.2646405 0.0
									CHANNELS 3 Zrotation Xrotation Yrotation
									JOINT RIGHT_HAND
									{
										OFFSET 0.0 -0.2646405 0.0
										CHANNELS 3 Zrotation Xrotation Yrotation
										JOINT RIGHT_HAND_TRACKER
										{
											OFFSET 0.0 -0.13462912 0.0
											CHANNELS 3 Zrotation Xrotation Yrotation
											End Site
											{
												OFFSET 0.0 0.0 0.0
											}
										}
										JOINT RIGHT_THUMB_METACARPAL
										{
											OFFSET 0.0 -0.13462912 0.0
											CHANNELS 3 Zrotation Xrotation Yrotation
											JOINT RIGHT_THUMB_PROXIMAL
											{
												OFFSET 0.0 -0.007826238 0.0
												CHANNELS 3 Zrotation Xrotation Yrotation
												JOINT RIGHT_THUMB_DISTAL
												{
													OFFSET 0.0 -0.007826238 0.0
													CHANNELS 3 Zrotation Xrotation Yrotation
													End Site
													{
														OFFSET 0.0 0.0 0.0
													}
												}
											}
										}
										JOINT RIGHT_INDEX_PROXIMAL
										{
											OFFSET 0.0 -0.13462912 0.0
											CHANNELS 3 Zrotation Xrotation Yrotation
											JOINT RIGHT_INDEX_INTERMEDIATE
											{
												OFFSET 0.0 -0.00875 0.0
												CHANNELS 3 Zrotation Xrotation Yrotation
												JOINT RIGHT_INDEX_DISTAL
												{
													OFFSET 0.0 -0.00875 0.0
													CHANNELS 3 Zrotation Xrotation Yrotation
													End Site
													{
														OFFSET 0.0 0.0 0.0
													}
												}
											}
										}
										JOINT RIGHT_MIDDLE_PROXIMAL
										{
											OFFSET 0.0 -0.13462912 0.0
											CHANNELS 3 Zrotation Xrotation Yrotation
											JOINT RIGHT_MIDDLE_INTERMEDIATE
											{
												OFFSET 0.0 -0.010500001 0.0
												CHANNELS 3 Zrotation Xrotation Yrotation
												JOINT RIGHT_MIDDLE_DISTAL
												{
													OFFSET 0.0 -0.010500001 0.0
													CHANNELS 3 Zrotation Xrotation Yrotation
													End Site
													{
														OFFSET 0.0 0.0 0.0
													}
												}
											}
										}
										JOINT RIGHT_RING_PROXIMAL
										{
											OFFSET 0.0 -0.13462912 0.0
											CHANNELS 3 Zrotation Xrotation Yrotation
											JOINT RIGHT_RING_INTERMEDIATE
											{
												OFFSET 0.0 -0.0098 0.0
												CHANNELS 3 Zrotation Xrotation Yrotation
												JOINT RIGHT_RING_DISTAL
												{
													OFFSET 0.0 -0.0098 0.0
													CHANNELS 3 Zrotation Xrotation Yrotation
													End Site
													{
														OFFSET 0.0 0.0 0.0
													}
												}
											}
										}
										JOINT RIGHT_LITTLE_PROXIMAL
										{
											OFFSET 0.0 -0.13462912 0.0
											CHANNELS 3 Zrotation Xrotation Yrotation
											JOINT RIGHT_LITTLE_INTERMEDIATE
											{
												OFFSET 0.0 -0.007 0.0
												CHANNELS 3 Zrotation Xrotation Yrotation
												JOINT RIGHT_LITTLE_DISTAL
												{
													OFFSET 0.0 -0.007 0.0
													CHANNELS 3 Zrotation Xrotation Yrotation
													End Site
													{
														OFFSET 0.0 0.0 0.0
													}
												}
											}
										}
									}
								}
								JOINT RIGHT_ELBOW_TRACKER
								{
									OFFSET 0.0 -0.2646405 0.0
									CHANNELS 3 Zrotation Xrotation Yrotation
									End Site
									{
										OFFSET 0.0 0.0 0.0
									}
								}
							}
						}
					}
				}
				JOINT CHEST_TRACKER
				{
					OFFSET 0.0 -0.1628557 0.0
					CHANNELS 3 Zrotation Xrotation Yrotation
					End Site
					{
						OFFSET 0.0 0.0 0.0
					}
				}
			}
		}
	}
	JOINT LEFT_HIP
	{
		OFFSET 0.0 -0.040713925 0.0
		CHANNELS 3 Zrotation Xrotation Yrotation
		JOINT LEFT_UPPER_LEG
		{
			OFFSET 0.0 -0.13 0.0
			CHANNELS 3 Zrotation Xrotation Yrotation
			JOINT LEFT_LOWER_LEG
			{
				OFFSET 0.0 -0.42749622 0.0
				CHANNELS 3 Zrotation Xrotation Yrotation
				JOINT LEFT_FOOT
				{
					OFFSET 0.0 -0.5113743 0.0
					CHANNELS 3 Zrotation Xrotation Yrotation
					JOINT LEFT_FOOT_TRACKER
					{
						OFFSET 0.0 -0.05 0.0
						CHANNELS 3 Zrotation Xrotation Yrotation
						End Site
						{
							OFFSET 0.0 0.0 0.0
						}
					}
				}
			}
			JOINT LEFT_KNEE_TRACKER
			{
				OFFSET 0.0 -0.42749622 0.0
				CHANNELS 3 Zrotation Xrotation Yrotation
				End Site
				{
					OFFSET 0.0 0.0 0.0
				}
			}
		}
	}
	JOINT RIGHT_HIP
	{
		OFFSET 0.0 -0.040713925 0.0
		CHANNELS 3 Zrotation Xrotation Yrotation
		JOINT RIGHT_UPPER_LEG
		{
			OFFSET 0.0 -0.13 0.0
			CHANNELS 3 Zrotation Xrotation Yrotation
			JOINT RIGHT_LOWER_LEG
			{
				OFFSET 0.0 -0.42749622 0.0
				CHANNELS 3 Zrotation Xrotation Yrotation
				JOINT RIGHT_FOOT
				{
					OFFSET 0.0 -0.5113743 0.0
					CHANNELS 3 Zrotation Xrotation Yrotation
					JOINT RIGHT_FOOT_TRACKER
					{
						OFFSET 0.0 -0.05 0.0
						CHANNELS 3 Zrotation Xrotation Yrotation
						End Site
						{
							OFFSET 0.0 0.0 0.0
						}
					}
				}
			}
			JOINT RIGHT_KNEE_TRACKER
			{
				OFFSET 0.0 -0.42749622 0.0
				CHANNELS 3 Zrotation Xrotation Yrotation
				End Site
				{
					OFFSET 0.0 0.0 0.0
				}
			}
		}
	}
	JOINT HIP_TRACKER
	{
		OFFSET 0.0 -0.040713925 0.0
		CHANNELS 3 Zrotation Xrotation Yrotation
		End Site
		{
			OFFSET 0.0 0.0 0.0
		}
	}
}
MOTION
Frames: 4               
Frame Time: 0.01
-0.0038514421 -0.43717608 0.29407036 -0.13063222 -19.547585 3.602695 -0.89986145 -7.4447694 2.0729568 -0.956926 -11.154514 1.801209 -9.939234E-17 2.6680429E-8 4.2688686E-7 2.1344076E-7 1.9877973E-16 1.0672038E-7 -2.1344337E-7 0.0 0.0 -2.1344337E-7 0.0 0.0 -2.1344337E-7 0.0 0.0 -65.43282 3.5916818E-7 2.3072722E-7 91.95832 54.39787 -31.892347 -0.74128217 -0.012400255 1.916316 3.6556358 45.848557 -5.5519238 8.0390436E-7 -74.9315 3.471764E-7 0.038431726 -48.45431 0.06799999 0.0 0.0 -2.6680425E-7 0.0 0.0 -2.6680425E-7 0.15607554 -75.01931 0.1744667 -2.134434E-7 8.537736E-7 -2.6680421E-8 -2.134434E-7 8.537736E-7 -2.6680421E-8 0.15607554 -75.01931 0.1744667 -2.134434E-7 8.537736E-7 -2.6680421E-8 -2.134434E-7 8.537736E-7 -2.6680421E-8 0.15607554 -75.01931 0.1744667 -2.134434E-7 8.537736E-7 -2.6680421E-8 -2.134434E-7 8.537736E-7 -2.6680421E-8 0.15607841 -75.01932 0.17446974 -2.1344343E-7 0.0 0.0 -2.1344343E-7 0.0 0.0 -1.7075183E-6 -8.003992E-8 1.06719895E-7 -2.1344337E-7 0.0 0.0 65.43282 0.0 0.0 -70.73487 39.38064 7.6074805 23.950462 28.1746 13.589923 -47.698307 69.21737 68.02526 -6.0896186E-6 -74.93151 6.0896195E-6 0.2885401 -48.30054 0.47092733 -1.7075472E-6 -1.2722218E-14 8.537736E-7 -1.7075472E-6 -1.2722218E-14 8.537736E-7 1.0950965 -74.86338 1.1997914 -3.4150944E-6 8.537736E-7 2.5444436E-14 -3.4150944E-6 8.537736E-7 2.5444436E-14 1.0950965 -74.86338 1.1997914 -3.4150944E-6 8.537736E-7 2.5444436E-14 -3.4150944E-6 8.537736E-7 2.5444436E-14 1.0950965 -74.86338 1.1997914 -3.4150944E-6 8.537736E-7 2.5444436E-14 -3.4150944E-6 8.537736E-7 2.5444436E-14 1.0950925 -74.86338 1.1997862 0.0 -2.5613208E-6 0.0 0.0 -2.5613208E-6 0.0 -7.653127E-15 8.53769E-7 1.0271908E-6 2.1344076E-7 1.9877973E-16 1.0672038E-7 -90.0 1.0564911E-6 -1.3583456E-6 89.23774 20.401365 1.8106298 2.2920802 -5.690099 -3.9665356 125.11855 83.53873 -124.86283 -4.5277747E-7 -90.0 0.0 2.278164 -0.06673305 -3.3552597 90.0 -1.2074183E-6 1.2074183E-6 -85.70235 16.471142 -7.0394588 -1.2394822 -5.6079 -0.29740727 165.33841 83.646355 -166.93236 179.22635 -89.99998 179.22635 -1.0288436 0.002259554 -0.2515909 -5.336085E-8 1.6675268E-9 -2.6680425E-7
-0.003481065 -0.44106346 0.2884497 -0.081922814 -19.204453 3.4197142 -0.8450811 -7.240071 1.9651299 -0.8957529 -10.848921 1.7116838 4.3484144E-17 -1.33402125E-8 3.7352595E-7 0.0 0.0 -8.5376445E-7 8.696829E-17 -1.33402125E-8 7.470519E-7 8.696829E-17 -1.33402125E-8 7.470519E-7 8.696829E-17 -1.33402125E-8 7.470519E-7 -65.43282 1.9504337E-6 3.2824855E-6 90.07526 53.355564 -29.993275 -0.67947334 -0.0106887985 1.8022097 3.846823 46.85826 -5.816745 -8.039049E-7 -74.93152 -3.4717687E-7 0.049157515 -48.47875 0.086946666 -4.268868E-7 -1.9878466E-16 5.336085E-8 -4.268868E-7 -1.9878466E-16 5.336085E-8 0.19982667 -75.04372 0.22333235 -4.2688686E-7 -9.939234E-16 2.6680425E-7 -4.2688686E-7 -9.939234E-16 2.6680425E-7 0.19982667 -75.04372 0.22333235 -4.2688686E-7 -9.939234E-16 2.6680425E-7 -4.2688686E-7 -9.939234E-16 2.6680425E-7 0.19982667 -75.04372 0.22333235 -4.2688686E-7 -9.939234E-16 2.6680425E-7 -4.2688686E-7 -9.939234E-16 2.6680425E-7 0.19982344 -75.04372 0.22332917 -2.1344343E-7 -4.969617E-16 2.6680425E-7 -2.1344343E-7 -4.969617E-16 2.6680425E-7 8.537574E-7 -8.457533E-6 1.4940753E-6 8.696829E-17 -1.33402125E-8 7.470519E-7 65.43282 -1.4366706E-6 9.229075E-7 -72.57905 39.34311 8.780404 22.982788 26.097273 14.279855 -47.413162 69.41364 68.10333 2.5189773E-5 -74.93151 3.0061485E-5 0.488895 -48.21996 0.78332734 1.7075472E-6 8.537736E-7 1.7075472E-6 1.7075472E-6 8.537736E-7 1.7075472E-6 1.823272 -74.77893 1.9882203 -3.4150944E-6 -8.537736E-7 -8.537736E-7 -3.4150944E-6 -8.537736E-7 -8.537736E-7 1.823272 -74.77893 1.9882203 -3.4150944E-6 -8.537736E-7 -8.537736E-7 -3.4150944E-6 -8.537736E-7 -8.537736E-7 1.823272 -74.77893 1.9882203 -3.4150944E-6 -8.537736E-7 -8.537736E-7 -3.4150944E-6 -8.537736E-7 -8.537736E-7 1.8232732 -74.77893 1.9882193 -3.4150944E-6 -1.7075472E-6 -1.7075472E-6 -3.4150944E-6 -1.7075472E-6 -1.7075472E-6 2.060503E-14 1.6541767E-6 -1.4273944E-6 0.0 0.0 -8.5376445E-7 -90.0 6.0370917E-7 -6.0370917E-7 89.11558 19.922384 1.9615566 2.2310133 -5.6880536 -3.9697087 126.53971 83.46655 -126.28036 7.168952E-7 -90.0 0.0 2.2265093 -0.065270685 -3.3579404 90.0 -6.037091E-7 6.0370917E-7 -85.8418 15.945943 -6.8851147 -1.2208555 -5.6084976 -0.24559276 166.01016 83.48138 -167.64786 -7.5466126E-8 -90.0 0.0 -1.017317 0.0018435373 -0.20775875 1.06721686E-7 1.704212E-6 3.5351562E-7
-0.0030682206 -0.44509166 0.28243965 -0.036631867 -18.82519 3.2219074 -0.78512025 -7.031759 1.8527993 -0.8298957 -10.537907 1.6181935 -0.0 0.0 1.6008255E-7 -0.0 0.0 5.3360406E-8 -0.0 0.0 0.0 -0.0 0.0 0.0 -0.0 0.0 0.0 -65.43282 -3.5916673E-6 -2.3072628E-6 88.32377 52.295544 -28.196758 -0.6963313 -0.010127175 1.6664509 4.0532093 47.73483 -6.004773 3.702954E-6 -74.93151 3.7790755E-6 0.022329828 -48.41758 0.039533343 4.268868E-7 2.6680425E-8 2.134434E-7 4.268868E-7 2.6680425E-8 2.134434E-7 0.09056166 -74.98261 0.101260886 2.134434E-7 2.4848082E-17 1.33402125E-8 2.134434E-7 2.4848082E-17 1.33402125E-8 0.09056166 -74.98261 0.101260886 2.134434E-7 2.4848082E-17 1.33402125E-8 2.134434E-7 2.4848082E-17 1.33402125E-8 0.09056166 -74.98261 0.101260886 2.134434E-7 2.4848082E-17 1.33402125E-8 2.134434E-7 2.4848082E-17 1.33402125E-8 0.09056044 -74.982605 0.10126034 -2.134434E-7 8.537736E-7 8.80454E-7 -2.134434E-7 8.537736E-7 8.80454E-7 -2.1343892E-6 1.5474321E-6 -1.2806335E-6 -0.0 0.0 0.0 65.43283 -2.1550009E-6 1.384358E-6 -74.22478 39.10915 9.819772 22.232712 24.323656 14.809 -46.697235 69.55545 67.423256 -1.2862302E-5 -74.93151 -5.554753E-6 0.23726755 -48.28986 0.37827152 -1.7075474E-6 -3.4150944E-6 -5.1226416E-6 -1.7075474E-6 -3.4150944E-6 -5.1226416E-6 0.88470995 -74.85349 0.9632928 -1.7075474E-6 -2.5444443E-14 1.7075474E-6 -1.7075474E-6 -2.5444443E-14 1.7075474E-6 0.88470995 -74.85349 0.9632928 -1.7075474E-6 -2.5444443E-14 1.7075474E-6 -1.7075474E-6 -2.5444443E-14 1.7075474E-6 0.88470995 -74.85349 0.9632928 -1.7075474E-6 -2.5444443E-14 1.7075474E-6 -1.7075474E-6 -2.5444443E-14 1.7075474E-6 0.8847149 -74.85349 0.96329653 2.5444436E-14 1.7075472E-6 -1.7075472E-6 2.5444436E-14 1.7075472E-6 -1.7075472E-6 -1.3865025E-14 -6.6166967E-6 -2.4012206E-7 -0.0 0.0 5.3360406E-8 -90.0 -4.5278185E-7 1.962055E-6 88.99084 19.428291 2.1336968 2.1799402 -5.6864114 -3.9760065 127.72796 83.406006 -127.46588 -8.67818E-7 -90.0 0.0 2.1836114 -0.06411579 -3.3632643 90.0 6.0370905E-7 -1.8111274E-6 -85.98932 15.417085 -6.742665 -1.191446 -5.60945 -0.1597872 166.54926 83.34147 -168.22366 -1.8866533E-7 -90.0 0.0 -0.99944925 0.0011771392 -0.13517174 -5.3360843E-8 -3.4150944E-6 2.3345372E-7
-0.0026089516 -0.44886178 0.27664107 0.0037553199 -18.461924 3.0215883 -0.72289014 -6.833221 1.7520157 -0.7631105 -10.241389 1.5349377 9.597572E-15 6.8702093E-6 -1.6008255E-7 2.1344198E-7 -6.856823E-6 3.7352342E-7 7.982447E-15 3.4284346E-6 -2.6680425E-7 7.982447E-15 3.4284346E-6 -2.6680425E-7 7.982447E-15 3.4284346E-6 -2.6680425E-7 -65.43284 -2.6937464E-6 -1.730445E-6 86.57064 51.111137 -26.421698 -0.6927051 -0.009145659 1.5131074 4.2915673 48.781982 -6.227846 -3.3010024E-6 -74.93152 -3.605488E-6 0.025137698 -48.42398 0.04449846 -0.0 0.0 3.7352595E-7 -0.0 0.0 3.7352595E-7 0.10197207 -74.98901 0.11401282 2.1344337E-7 -8.537735E-7 -9.3381476E-7 2.1344337E-7 -8.537735E-7 -9.3381476E-7 0.10197207 -74.98901 0.11401282 2.1344337E-7 -8.537735E-7 -9.3381476E-7 2.1344337E-7 -8.537735E-7 -9.3381476E-7 0.10197207 -74.98901 0.11401282 2.1344337E-7 -8.537735E-7 -9.3381476E-7 2.1344337E-7 -8.537735E-7 -9.3381476E-7 0.10197149 -74.98901 0.11401171 2.1344337E-7 -1.2424038E-16 -6.6701055E-8 2.1344337E-7 -1.2424038E-16 -6.6701055E-8 1.2806356E-6 -3.3883484E-6 -1.06719604E-7 7.982447E-15 3.4284346E-6 -2.6680425E-7 65.43282 -4.5395545E-6 -1.142885E-6 -75.99601 39.014748 10.738606 21.050404 21.615887 15.303009 -46.729748 69.87279 68.05571 -9.550023E-6 -74.93151 -1.8075472E-5 0.27701944 -48.247536 0.44369116 -1.908333E-14 8.537737E-7 2.561321E-6 -1.908333E-14 8.537737E-7 2.561321E-6 1.0343719 -74.81063 1.1277522 0.0 0.0 -8.537736E-7 0.0 0.0 -8.537736E-7 1.0343719 -74.81063 1.1277522 0.0 0.0 -8.537736E-7 0.0 0.0 -8.537736E-7 1.0343719 -74.81063 1.1277522 0.0 0.0 -8.537736E-7 0.0 0.0 -8.537736E-7 1.0343584 -74.81063 1.1277374 1.7075472E-6 -1.2722218E-14 -8.537736E-7 1.7075472E-6 -1.2722218E-14 -8.537736E-7 -2.5613117E-6 2.2411475E-6 5.336067E-7 2.1344198E-7 -6.856823E-6 3.7352342E-7 -90.0 -3.0185458E-7 2.112982E-6 88.87601 18.941708 2.3022351 2.1074128 -5.684323 -3.9987576 129.07233 83.34906 -128.79001 0.6330213 -89.999985 0.6330212 2.1238413 -0.062716655 -3.3825035 89.99999 3.018546E-7 -1.5092728E-6 -86.13523 14.927321 -6.629267 -1.1466668 -5.6106315 -0.047290068 166.97977 83.22268 -168.68921 2.4526457E-7 -90.0 0.0 -0.9707363 3.3938917E-4 -0.040004704 -5.336085E-8 1.7092148E-6 -1.00051594E-7
